<svg width="41" height="41" viewBox="0 0 41 41" fill="red" xmlns="http://www.w3.org/2000/svg">
<path d="M32.987 3.23096H8.79395C6.75379 3.23096 5.09277 4.89197 5.09277 6.95018V31.3599C5.09277 33.4181 6.75379 35.0791 8.79395 35.0791H29.2677L28.3109 31.739L30.6218 33.8875L32.8064 35.9096L36.6881 39.3399V6.95018C36.6881 4.89197 35.0271 3.23096 32.987 3.23096ZM26.0179 26.8101C26.0179 26.8101 25.368 26.0338 24.8263 25.3477C27.1915 24.6797 28.0942 23.1992 28.0942 23.1992C27.354 23.6867 26.6498 24.0297 26.0179 24.2644C25.1152 24.6436 24.2486 24.8964 23.4 25.0408C21.6668 25.3658 20.078 25.2755 18.7239 25.0227C17.6948 24.8241 16.8101 24.5353 16.0699 24.2464C15.6547 24.0839 15.2033 23.8853 14.7519 23.6325C14.6978 23.5964 14.6436 23.5784 14.5894 23.5423C14.5533 23.5242 14.5353 23.5062 14.5172 23.4881C14.1922 23.3076 14.0117 23.1812 14.0117 23.1812C14.0117 23.1812 14.8783 24.6255 17.1712 25.3116C16.6296 25.9977 15.9616 26.8101 15.9616 26.8101C11.9715 26.6837 10.455 24.0658 10.455 24.0658C10.455 18.2523 13.0548 13.5401 13.0548 13.5401C15.6547 11.5902 18.1281 11.6444 18.1281 11.6444L18.3087 11.861C15.0589 12.7998 13.5603 14.2261 13.5603 14.2261C13.5603 14.2261 13.9575 14.0095 14.6255 13.7026C16.5574 12.854 18.092 12.6193 18.7239 12.5651C18.8322 12.5471 18.9225 12.529 19.0308 12.529C20.1322 12.3846 21.3779 12.3485 22.6779 12.4929C24.393 12.6915 26.2346 13.197 28.1123 14.2261C28.1123 14.2261 26.686 12.8721 23.6167 11.9332L23.8695 11.6444C23.8695 11.6444 26.3429 11.5902 28.9428 13.5401C28.9428 13.5401 31.5426 18.2523 31.5426 24.0658C31.5426 24.0658 30.008 26.6837 26.0179 26.8101ZM17.6226 18.3787C16.5935 18.3787 15.781 19.2814 15.781 20.3827C15.781 21.4841 16.6115 22.3868 17.6226 22.3868C18.6517 22.3868 19.4642 21.4841 19.4642 20.3827C19.4822 19.2814 18.6517 18.3787 17.6226 18.3787ZM24.2125 18.3787C23.1834 18.3787 22.3709 19.2814 22.3709 20.3827C22.3709 21.4841 23.2014 22.3868 24.2125 22.3868C25.2416 22.3868 26.054 21.4841 26.054 20.3827C26.054 19.2814 25.2416 18.3787 24.2125 18.3787Z" fill="#0A091A"/>
</svg>
