<svg xmlns="http://www.w3.org/2000/svg" version="1.1" xmlns:xlink="http://www.w3.org/1999/xlink" xmlns:svgjs="http://svgjs.com/svgjs" width="1120.000000pt" height="1120.000000pt"><svg version="1.0" xmlns="http://www.w3.org/2000/svg" width="1120.000000pt" height="1120.000000pt" viewBox="0 0 1120.000000 1120.000000" preserveAspectRatio="xMidYMid meet">
<metadata>
Created by potrace 1.14, written by Peter Selinger 2001-2017
</metadata>
<g transform="translate(0.000000,1120.000000) scale(0.100000,-0.100000)" fill="#000000" stroke="none">
<path d="M5435 9866 c-22 -7 -98 -46 -170 -88 -71 -41 -249 -143 -395 -227
-146 -83 -272 -156 -280 -161 -34 -20 -126 -75 -145 -85 -35 -20 -111 -62
-135 -76 -14 -8 -30 -20 -38 -26 -7 -7 -20 -13 -28 -13 -8 0 -14 -4 -14 -10 0
-5 -5 -10 -10 -10 -9 0 -219 -117 -270 -150 -8 -5 -33 -19 -55 -31 -22 -12
-48 -28 -57 -37 -10 -8 -18 -11 -18 -7 0 4 -8 1 -17 -7 -10 -8 -61 -39 -113
-69 -52 -30 -108 -62 -125 -71 -16 -10 -41 -24 -55 -30 -14 -7 -27 -15 -30
-18 -6 -6 -33 -22 -80 -48 -49 -27 -472 -270 -490 -282 -20 -12 -100 -58 -175
-100 -33 -18 -87 -51 -121 -72 -34 -21 -64 -38 -67 -38 -4 0 -31 -16 -61 -35
-30 -19 -59 -35 -64 -35 -17 0 -66 -58 -77 -91 -22 -64 21 -150 82 -165 12 -4
23 -10 23 -15 0 -5 4 -9 9 -9 7 0 179 -96 251 -141 8 -5 35 -20 60 -34 25 -14
61 -35 80 -47 19 -11 53 -31 75 -42 22 -12 51 -29 65 -38 36 -23 111 -66 140
-80 14 -7 27 -15 30 -18 3 -3 21 -13 40 -23 59 -31 95 -52 100 -57 5 -5 41
-26 100 -57 19 -10 37 -20 40 -23 3 -3 16 -11 29 -18 13 -8 40 -23 60 -34 20
-12 56 -32 81 -46 25 -14 73 -42 107 -63 35 -21 72 -40 83 -44 11 -3 20 -10
20 -15 0 -4 8 -10 18 -13 9 -3 40 -20 67 -36 28 -17 64 -37 80 -46 17 -8 44
-23 60 -34 17 -10 47 -28 68 -40 200 -113 251 -144 259 -156 4 -5 8 -6 8 -1 0
4 12 1 26 -9 14 -9 112 -66 217 -127 106 -61 208 -120 227 -131 19 -11 55 -31
80 -45 25 -13 61 -34 80 -46 75 -45 96 -57 113 -62 9 -4 17 -10 17 -15 0 -5 4
-9 10 -9 5 0 48 -22 96 -50 48 -27 91 -50 95 -50 5 0 9 -4 9 -9 0 -5 8 -11 18
-14 17 -6 93 -48 102 -57 3 -3 16 -11 30 -18 14 -6 39 -20 56 -30 261 -151
261 -151 255 -256 -2 -40 -59 -92 -154 -140 -129 -65 -204 -57 -359 37 -43 26
-80 47 -82 47 -3 0 -56 30 -118 68 -62 37 -117 69 -123 71 -10 4 -24 12 -82
48 -16 9 -30 17 -33 17 -3 0 -32 17 -65 38 -33 20 -87 51 -120 69 -33 17 -68
38 -77 47 -10 8 -18 11 -18 7 0 -4 -8 -1 -17 7 -31 25 -123 78 -137 78 -8 0
-16 4 -18 10 -3 10 -73 51 -120 72 -16 7 -28 16 -28 20 0 4 -9 8 -20 8 -11 0
-20 4 -20 9 0 5 -19 18 -42 30 -24 11 -61 32 -83 45 -22 14 -57 34 -77 45 -64
35 -83 46 -88 51 -4 4 -39 24 -95 54 -11 6 -23 16 -27 21 -4 6 -8 6 -8 1 0 -5
-8 -2 -17 6 -10 8 -43 29 -73 45 -30 17 -126 72 -214 122 -87 50 -162 91 -167
91 -5 0 -9 3 -9 8 0 4 -10 12 -23 18 -50 24 -143 78 -158 90 -8 8 -18 14 -22
14 -3 0 -71 38 -151 85 -80 47 -150 85 -155 85 -5 0 -11 3 -13 8 -1 4 -16 14
-33 23 -16 9 -74 41 -127 72 -54 32 -102 57 -106 57 -5 0 -17 9 -27 20 -10 11
-21 17 -26 15 -4 -3 -10 -1 -14 4 -3 5 -18 16 -33 24 -35 18 -92 50 -162 92
-116 69 -205 119 -210 120 -3 0 -19 10 -37 23 -17 12 -34 22 -37 22 -3 0 -27
13 -54 29 -110 65 -194 71 -295 22 -74 -35 -121 -63 -125 -73 -2 -5 -12 -8
-22 -8 -10 0 -20 -4 -22 -8 -3 -8 -32 -25 -158 -95 -30 -17 -57 -33 -60 -36
-3 -3 -23 -15 -45 -26 -22 -11 -46 -26 -53 -33 -8 -7 -18 -10 -23 -7 -5 4 -9
1 -9 -4 0 -6 -7 -11 -15 -11 -8 0 -15 -4 -15 -9 0 -5 -8 -11 -17 -14 -19 -6
-93 -48 -161 -91 -23 -14 -44 -26 -46 -26 -2 0 -71 -39 -153 -86 -81 -48 -168
-98 -193 -112 -139 -76 -160 -98 -166 -173 -5 -64 27 -99 157 -171 82 -46 94
-53 109 -64 8 -7 38 -24 65 -39 28 -14 64 -34 80 -44 17 -10 48 -28 70 -41 88
-50 130 -74 135 -80 3 -3 23 -14 45 -25 22 -11 42 -22 45 -25 5 -5 27 -18 75
-44 11 -6 22 -13 25 -16 3 -3 21 -13 40 -23 19 -9 49 -25 65 -35 50 -31 188
-111 270 -156 28 -16 70 -41 95 -56 25 -15 119 -70 210 -123 91 -52 181 -104
200 -115 19 -12 46 -27 60 -35 14 -7 70 -40 125 -72 223 -130 339 -195 347
-195 4 0 8 -4 8 -9 0 -5 8 -11 18 -14 9 -4 37 -18 62 -33 25 -14 110 -64 190
-110 80 -47 152 -89 160 -94 8 -6 21 -13 28 -16 22 -11 526 -303 537 -311 6
-5 21 -14 35 -21 14 -7 34 -18 45 -25 11 -7 63 -37 115 -67 52 -30 104 -60
115 -67 11 -7 27 -16 35 -20 8 -4 48 -26 88 -50 40 -24 77 -43 82 -43 6 0 10
-4 10 -10 0 -5 4 -10 10 -10 5 0 70 -36 145 -80 75 -44 139 -80 142 -80 4 0
14 -6 22 -14 9 -8 39 -26 66 -41 28 -14 64 -34 80 -44 17 -10 48 -28 70 -41
88 -50 130 -74 135 -80 3 -3 19 -12 35 -21 75 -38 121 -65 133 -76 7 -7 24
-16 38 -19 13 -3 24 -10 24 -15 0 -5 7 -9 15 -9 8 0 15 -4 15 -10 0 -5 4 -10
10 -10 5 0 42 -19 82 -43 40 -24 80 -46 88 -50 8 -4 33 -18 55 -32 22 -14 47
-28 55 -32 8 -3 26 -14 40 -23 83 -56 227 -57 293 -2 9 8 17 11 17 7 0 -4 8
-1 18 7 9 8 31 22 47 30 17 8 71 39 120 68 50 29 110 64 135 78 25 13 50 28
55 32 8 6 51 30 150 84 11 6 22 13 25 16 5 5 14 10 89 52 75 42 177 101 201
116 14 9 27 17 30 17 3 0 52 28 110 62 58 34 109 62 114 62 5 -1 13 6 18 15 5
9 14 16 19 16 6 0 47 22 92 48 45 27 89 51 97 55 8 4 31 17 50 28 19 12 53 32
75 44 22 13 81 47 130 76 50 29 105 59 123 68 17 8 32 19 32 23 0 4 4 8 9 8 6
0 60 29 122 65 61 36 113 65 114 65 2 0 47 26 102 58 54 32 118 70 143 84 25
14 122 69 215 123 94 54 184 106 200 115 17 10 62 36 102 59 39 22 89 50 110
63 21 12 58 33 82 47 90 50 116 99 97 178 -10 41 -42 69 -169 140 -56 31 -103
61 -105 65 -2 4 -8 8 -14 8 -6 0 -38 17 -72 37 -33 21 -74 45 -91 54 -94 51
-132 73 -156 90 -15 10 -30 19 -33 19 -3 0 -29 14 -58 32 -29 17 -82 48 -118
68 -36 20 -168 97 -295 170 -126 73 -255 146 -285 163 -30 17 -57 33 -60 36
-3 4 -14 11 -25 16 -12 6 -87 48 -168 95 -188 109 -239 138 -257 147 -8 3 -17
9 -20 12 -3 4 -23 15 -45 26 -22 11 -42 22 -45 25 -3 3 -16 11 -30 19 -343
196 -446 257 -452 265 -4 6 -8 8 -8 3 0 -4 -18 4 -41 18 -39 25 -62 39 -159
93 -25 14 -76 44 -115 67 -38 22 -77 44 -85 48 -8 4 -33 19 -55 32 -22 14 -53
32 -70 41 -16 8 -43 23 -60 34 -16 10 -41 25 -55 33 -133 74 -294 169 -306
181 -41 41 -47 119 -14 166 23 32 121 96 186 121 53 21 138 21 189 1 22 -9 68
-33 103 -54 34 -21 67 -38 72 -38 6 0 10 -4 10 -8 0 -4 16 -14 35 -21 19 -7
35 -17 35 -22 0 -5 5 -9 11 -9 6 0 24 -9 40 -21 16 -11 29 -17 29 -13 0 3 7 1
15 -6 22 -18 236 -140 246 -140 5 0 9 -4 9 -9 0 -5 8 -11 18 -14 9 -3 40 -20
67 -36 28 -17 57 -34 65 -38 8 -4 51 -28 95 -54 249 -146 325 -189 334 -189 5
0 11 -3 13 -7 2 -5 17 -15 33 -24 17 -9 107 -60 200 -114 94 -54 180 -104 192
-109 13 -6 23 -14 23 -18 0 -5 5 -8 11 -8 6 0 48 -23 95 -50 47 -28 89 -50 94
-50 6 0 10 -3 10 -8 0 -4 15 -13 33 -21 17 -8 34 -17 37 -20 3 -3 25 -17 50
-30 25 -13 53 -31 63 -39 9 -8 17 -11 17 -7 0 4 8 1 18 -7 9 -9 37 -27 62 -40
25 -14 117 -67 205 -118 88 -51 176 -101 195 -112 19 -10 53 -30 75 -43 22
-14 47 -28 55 -32 8 -4 43 -24 78 -45 34 -21 67 -38 72 -38 6 0 10 -4 10 -10
0 -5 3 -9 8 -8 4 1 18 -5 32 -13 51 -32 130 -79 134 -79 3 0 39 -20 80 -45 42
-25 81 -45 86 -45 6 0 10 -4 10 -10 0 -5 4 -10 9 -10 5 0 55 -27 111 -60 56
-33 104 -60 106 -60 3 0 29 -16 59 -35 30 -19 55 -31 55 -27 0 4 4 2 8 -3 27
-37 145 -61 207 -43 17 5 38 11 49 13 10 3 26 11 35 18 9 8 41 27 71 44 30 16
72 39 93 51 20 12 52 30 70 41 157 91 311 180 469 272 103 60 192 109 198 109
5 0 10 3 10 8 0 4 21 18 48 32 26 13 70 39 99 57 29 18 54 33 57 33 13 0 106
64 106 73 0 6 3 7 7 4 12 -13 35 35 38 81 3 38 -2 55 -24 87 -15 22 -31 40
-36 40 -6 0 -21 8 -35 17 -14 9 -83 49 -155 90 -71 41 -141 81 -155 89 -14 8
-33 20 -43 28 -9 8 -17 11 -17 7 0 -4 -12 2 -26 13 -15 12 -32 21 -40 21 -7 0
-14 4 -16 8 -3 7 -197 121 -223 131 -5 2 -21 12 -35 21 -14 9 -50 30 -80 47
-30 17 -73 41 -95 53 -22 13 -62 36 -90 52 -27 16 -63 37 -80 47 -16 10 -51
29 -77 44 -25 14 -64 37 -87 51 -22 14 -42 26 -45 26 -2 0 -81 45 -176 100
-94 55 -173 100 -176 100 -2 0 -32 17 -66 38 -35 21 -70 41 -78 45 -8 4 -33
18 -55 32 -22 14 -47 28 -55 32 -8 4 -48 26 -88 50 -40 24 -77 43 -82 43 -6 0
-10 5 -10 10 0 6 -4 10 -8 10 -8 0 -251 135 -302 168 -14 9 -28 15 -32 14 -5
-1 -8 2 -8 8 0 5 -4 10 -10 10 -5 0 -39 18 -75 40 -36 22 -68 40 -71 40 -3 0
-25 13 -48 28 -22 15 -56 34 -73 41 -18 7 -33 17 -33 22 0 5 -4 9 -9 9 -5 0
-64 32 -131 70 -67 39 -126 70 -131 70 -5 0 -9 5 -9 10 0 6 -5 10 -10 10 -6 0
-39 18 -75 39 -36 22 -74 42 -85 46 -11 3 -26 12 -32 19 -7 6 -53 35 -103 62
-49 28 -108 61 -130 74 -22 12 -60 34 -85 48 -25 14 -62 36 -82 49 -21 12 -40
23 -43 23 -4 0 -25 13 -48 29 -23 16 -45 29 -50 30 -4 0 -17 7 -30 15 -61 38
-149 86 -158 86 -5 0 -9 5 -9 10 0 6 -4 10 -9 10 -5 0 -48 23 -96 50 -48 28
-91 50 -96 50 -5 0 -9 5 -9 10 0 6 -4 10 -9 10 -5 0 -64 32 -132 71 -68 40
-137 80 -154 89 -16 9 -54 31 -83 49 -29 17 -57 31 -62 31 -4 0 -10 3 -12 8
-3 7 -66 43 -115 66 -13 6 -23 14 -23 19 0 4 -5 7 -10 7 -6 0 -57 27 -114 60
-57 33 -116 64 -130 70 -44 16 -128 20 -171 6z"></path>
<path d="M105 6392 c-11 -2 -32 -13 -48 -24 -60 -43 -57 3 -57 -942 l0 -864
31 -60 c27 -55 76 -106 119 -125 8 -4 29 -15 45 -26 17 -10 48 -28 70 -41 64
-36 298 -172 325 -188 14 -9 26 -14 26 -11 1 2 10 -3 20 -12 11 -9 40 -28 67
-43 116 -64 144 -81 177 -103 19 -12 40 -23 47 -23 7 0 13 -4 13 -10 0 -5 4
-10 9 -10 5 0 42 -19 83 -43 40 -24 93 -55 118 -69 62 -35 91 -52 275 -158 88
-51 175 -101 193 -111 58 -34 95 -55 257 -149 88 -51 174 -101 190 -110 17 -9
74 -43 127 -74 54 -31 102 -56 108 -56 5 0 10 -4 10 -10 0 -5 11 -12 25 -16
14 -3 25 -10 25 -15 0 -5 7 -9 15 -9 8 0 15 -4 15 -10 0 -5 5 -10 11 -10 13 0
258 -139 277 -157 7 -7 17 -13 22 -13 4 0 57 -29 118 -65 60 -36 115 -65 121
-65 6 0 11 -4 11 -9 0 -5 8 -11 18 -14 9 -4 35 -17 58 -30 22 -14 123 -73 225
-131 101 -58 191 -111 199 -116 8 -6 22 -13 30 -17 8 -3 39 -21 68 -40 29 -18
56 -33 61 -33 5 0 16 -6 23 -13 7 -7 24 -18 38 -25 14 -7 41 -22 60 -34 77
-47 136 -79 153 -85 9 -3 17 -9 17 -14 0 -5 5 -9 10 -9 6 0 48 -22 93 -49 135
-80 222 -129 230 -130 4 0 13 -5 20 -11 6 -6 86 -53 177 -105 91 -52 172 -100
180 -105 8 -6 22 -13 30 -17 8 -3 29 -16 45 -27 17 -12 32 -21 35 -21 3 0 64
-35 137 -78 73 -42 137 -77 143 -77 5 0 10 -4 10 -9 0 -5 10 -13 21 -16 12 -4
49 -25 83 -46 33 -21 67 -39 74 -39 6 0 12 -4 12 -10 0 -5 5 -10 10 -10 6 0
44 -21 86 -46 184 -112 236 -110 464 19 80 44 147 84 150 88 3 3 23 14 45 25
22 10 43 23 47 28 5 7 8 7 8 1 0 -7 3 -7 8 0 7 10 17 16 101 62 25 14 51 29
56 33 6 5 37 23 70 40 33 18 68 40 77 48 10 8 18 12 18 8 0 -4 12 1 28 12 22
16 181 108 342 199 14 8 52 30 85 49 33 19 68 38 78 41 9 3 17 9 17 14 0 5 7
9 15 9 8 0 15 5 15 10 0 6 9 10 20 10 11 0 20 5 20 10 0 6 4 10 9 10 5 0 42
19 83 43 40 24 80 47 88 51 8 4 24 12 35 19 11 7 71 42 133 77 63 36 132 75
153 88 21 12 57 32 79 45 111 63 430 246 479 275 31 18 64 36 74 39 9 3 17 9
17 13 0 4 8 10 18 13 18 6 95 49 122 67 15 10 154 90 235 135 22 12 72 40 110
62 39 22 86 49 105 59 19 10 37 21 40 24 3 3 16 11 29 18 13 8 39 22 57 33 19
10 51 29 72 40 20 12 66 38 102 59 36 21 88 50 115 66 28 15 64 35 80 45 53
32 141 82 315 180 47 27 90 52 96 56 10 8 73 43 129 72 17 9 32 19 33 24 2 4
10 7 18 7 8 0 14 5 14 11 0 5 4 8 9 5 5 -4 11 -3 13 1 3 8 69 46 115 68 13 5
23 13 23 18 0 4 6 7 13 7 7 0 28 11 47 23 19 13 60 37 90 54 30 17 132 74 225
128 94 54 179 103 190 109 11 6 23 16 27 21 4 6 8 6 8 1 0 -5 8 -2 18 6 9 8
89 55 176 104 271 152 293 186 285 457 0 6 0 77 0 157 1 172 1 236 1 390 0 63
0 121 0 128 0 44 0 120 0 170 -1 352 0 485 3 565 1 31 0 57 -3 57 -3 0 -4 17
-4 37 3 75 -55 135 -129 135 -34 0 -69 -16 -192 -87 -82 -48 -179 -103 -215
-122 -36 -20 -72 -42 -81 -49 -8 -8 -19 -14 -22 -14 -4 0 -52 -27 -108 -60
-55 -33 -104 -60 -109 -60 -4 0 -13 -7 -20 -15 -7 -9 -15 -13 -18 -11 -2 3
-27 -11 -56 -30 -28 -18 -56 -34 -63 -34 -7 0 -13 -4 -13 -9 0 -5 -6 -11 -13
-13 -7 -2 -79 -41 -160 -88 -81 -47 -155 -89 -165 -95 -56 -32 -379 -218 -392
-225 -48 -28 -214 -122 -255 -144 -11 -6 -22 -13 -25 -16 -6 -6 -39 -25 -93
-53 -23 -11 -44 -24 -47 -27 -3 -3 -26 -17 -52 -30 -27 -14 -48 -28 -48 -32 0
-5 -9 -8 -20 -8 -11 0 -20 -4 -20 -10 0 -5 -4 -10 -9 -10 -5 0 -70 -36 -146
-80 -76 -44 -139 -80 -141 -80 -2 0 -32 -17 -66 -38 -35 -21 -83 -50 -108 -64
-165 -92 -235 -133 -238 -140 -2 -5 -8 -8 -13 -8 -13 0 -342 -191 -350 -202
-3 -5 -9 -9 -13 -8 -7 2 -101 -50 -224 -123 -26 -15 -56 -32 -67 -38 -11 -5
-29 -15 -40 -22 -11 -7 -54 -32 -95 -55 -41 -24 -82 -47 -90 -52 -12 -8 -191
-110 -275 -158 -11 -6 -54 -31 -95 -55 -41 -24 -82 -47 -90 -50 -8 -4 -28 -16
-45 -27 -16 -11 -46 -28 -65 -38 -19 -10 -75 -42 -124 -70 -49 -29 -93 -52
-97 -52 -5 0 -9 -4 -9 -10 0 -5 -5 -10 -11 -10 -5 0 -54 -25 -107 -56 -53 -31
-110 -64 -127 -73 -16 -9 -35 -22 -43 -28 -7 -7 -20 -13 -28 -13 -8 0 -14 -4
-14 -8 0 -4 -12 -13 -27 -19 -16 -7 -50 -25 -78 -41 -27 -16 -61 -35 -75 -43
-14 -8 -27 -16 -30 -20 -3 -3 -21 -13 -40 -23 -19 -9 -60 -31 -90 -49 -50 -29
-63 -32 -135 -32 -85 1 -101 6 -210 70 -33 19 -71 41 -85 47 -14 7 -27 15 -30
18 -10 11 -170 100 -179 100 -5 0 -11 4 -13 8 -4 10 -164 102 -177 102 -5 0
-11 3 -13 8 -3 7 -125 82 -134 82 -3 0 -29 16 -59 35 -30 19 -55 32 -55 28 0
-3 -8 2 -19 11 -10 9 -34 25 -52 35 -52 27 -133 73 -144 81 -5 4 -26 17 -45
27 -19 11 -107 62 -195 113 -88 51 -180 104 -205 118 -25 14 -78 45 -118 69
-41 24 -78 43 -83 43 -5 0 -9 5 -9 10 0 6 -4 10 -9 10 -5 0 -30 12 -56 28 -45
26 -77 44 -155 87 -19 11 -42 25 -50 31 -8 6 -40 25 -70 41 -49 26 -91 51
-155 90 -11 7 -42 24 -70 39 -27 14 -57 32 -65 39 -8 7 -25 16 -37 19 -13 4
-23 12 -23 17 0 5 -5 9 -11 9 -6 0 -64 32 -129 70 -65 39 -123 70 -129 70 -6
0 -11 5 -11 10 0 6 -7 10 -15 10 -8 0 -15 5 -15 10 0 6 -3 9 -7 8 -5 -1 -19 5
-33 14 -55 35 -292 168 -301 168 -5 0 -9 3 -9 8 0 4 -10 12 -23 18 -19 9 -227
129 -321 184 -17 11 -42 25 -56 33 -14 8 -97 56 -185 107 -220 127 -224 130
-275 158 -25 14 -57 33 -72 43 -14 11 -28 19 -31 19 -3 0 -61 33 -128 73 -68
40 -149 87 -179 104 -84 47 -252 143 -280 161 -14 9 -28 15 -32 14 -5 -1 -8 2
-8 8 0 6 -4 10 -10 10 -5 0 -50 25 -100 55 -50 30 -95 55 -100 55 -6 0 -10 5
-10 12 0 6 -3 9 -6 5 -5 -5 -44 16 -129 71 -11 6 -29 16 -40 22 -11 5 -38 21
-60 34 -101 62 -146 78 -190 68z"></path>
</g>
</svg><style>@media (prefers-color-scheme: light) { :root { filter: none; } }
</style></svg>